<svg width="367px" height="163px" version="1.1" xmlns="http://www.w3.org/2000/svg" xmlns:xlink="http://www.w3.org/1999/xlink">
    <g id="Symbols" stroke="none" stroke-width="1" fill="none" fill-rule="evenodd">
        <g fill-rule="nonzero">
            <g transform="translate(0.000000, 0.000000)">
                <path d="M172.991453,88.0785714 L172.991453,82.7357143 C172.991453,81.8714286 172.519658,81.3214286 171.576068,81.5571429 L165.6,82.5 C164.813675,82.5785714 164.499145,82.9714286 164.499145,83.8357143 L164.499145,89.1785714 C164.499145,90.0428571 164.97094,90.5928571 165.91453,90.3571429 L171.890598,89.4142857 C172.676923,89.3357143 172.991453,88.9428571 172.991453,88.0785714 L172.991453,88.0785714 Z M201.928205,129.171429 C201.904192,129.469878 202.012438,129.763827 202.224319,129.975544 C202.436201,130.187261 202.730378,130.295423 203.02906,130.271429 L209.162393,130.271429 C209.461075,130.295423 209.755252,130.187261 209.967134,129.975544 C210.179015,129.763827 210.287261,129.469878 210.263248,129.171429 L210.263248,107.485714 C210.263248,98.45 206.252991,92.95 195.008547,92.95 C190.576448,92.9785217 186.165205,93.5591924 181.876923,94.6785714 C180.697436,94.9928571 180.382906,95.3071429 180.382906,96.5642857 L180.382906,129.171429 C180.358893,129.469878 180.467139,129.763827 180.67902,129.975544 C180.890902,130.187261 181.185079,130.295423 181.483761,130.271429 L187.617094,130.271429 C187.915776,130.295423 188.209953,130.187261 188.421835,129.975544 C188.633716,129.763827 188.741962,129.469878 188.717949,129.171429 L188.717949,100.414286 C190.631559,100.010387 192.580968,99.7998035 194.536752,99.7857143 C199.962393,99.7857143 202.08547,102.221429 202.08547,108.507143 L201.928205,129.171429 Z M284.964103,36.7714286 C284.988116,36.4729787 284.87987,36.1790297 284.667988,35.9673128 C284.456107,35.7555959 284.16193,35.6474338 283.863248,35.6714286 L277.729915,35.6714286 C277.431233,35.6474338 277.137055,35.7555959 276.925174,35.9673128 C276.713293,36.1790297 276.605046,36.4729787 276.62906,36.7714286 L276.62906,58.4571429 C276.62906,67.4928571 280.639316,72.9928571 291.883761,72.9928571 C296.315916,72.965154 300.727261,72.3844701 305.015385,71.2642857 C306.194872,70.95 306.509402,70.6357143 306.509402,69.3785714 L306.509402,36.7714286 C306.533415,36.4729787 306.425169,36.1790297 306.213288,35.9673128 C306.001406,35.7555959 305.707229,35.6474338 305.408547,35.6714286 L299.275214,35.6714286 C298.976532,35.6474338 298.682354,35.7555959 298.470473,35.9673128 C298.258592,36.1790297 298.150346,36.4729787 298.174359,36.7714286 L298.174359,65.5285714 C296.260749,65.9324704 294.31134,66.1430537 292.355556,66.1571429 C286.929915,66.1571429 284.806838,63.7214286 284.806838,57.4357143 L284.964103,36.7714286 Z M202.557265,36.7714286 C202.581278,36.4729787 202.473032,36.1790297 202.261151,35.9673128 C202.049269,35.7555959 201.755092,35.6474338 201.45641,35.6714286 L195.323077,35.6714286 C195.024395,35.6474338 194.730218,35.7555959 194.518336,35.9673128 C194.306455,36.1790297 194.198209,36.4729787 194.222222,36.7714286 L194.222222,58.4571429 C194.222222,67.4928571 198.232479,72.9928571 209.476923,72.9928571 C213.909079,72.965154 218.320423,72.3844701 222.608547,71.2642857 C223.788034,70.95 224.102564,70.6357143 224.102564,69.3785714 L224.102564,36.7714286 C224.126578,36.4729787 224.018331,36.1790297 223.80645,35.9673128 C223.594569,35.7555959 223.300391,35.6474338 223.001709,35.6714286 L216.868376,35.6714286 C216.569694,35.6474338 216.275517,35.7555959 216.063636,35.9673128 C215.851754,36.1790297 215.743508,36.4729787 215.767521,36.7714286 L215.767521,65.5285714 C213.853911,65.9324704 211.904502,66.1430537 209.948718,66.1571429 C204.523077,66.1571429 202.4,63.7214286 202.4,57.4357143 L202.557265,36.7714286 Z M292.670085,109.135714 L278.516239,109.135714 L278.516239,108.271429 C278.516239,102.614286 280.796581,99.4714286 285.750427,99.4714286 C290.704274,99.4714286 292.748718,102.378571 292.748718,108.271429 L292.670085,109.135714 Z M300.533333,109.607143 C300.533333,98.6857143 295.736752,93.0285714 285.357265,93.0285714 C276.550427,93.0285714 270.181197,99 270.181197,109.607143 L270.181197,114.635714 C270.181197,125.871429 276.078632,130.978571 287.716239,130.978571 C290.862228,130.96998 293.989399,130.493324 296.994872,129.564286 C297.837039,129.384779 298.506185,128.746545 298.724786,127.914286 L299.511111,125.085714 C299.825641,123.75 299.196581,123.435714 298.095726,123.592857 C296.994872,123.75 292.276923,124.221429 289.682051,124.221429 C282.841026,124.221429 278.437607,123.042857 278.437607,115.5 L278.437607,114.871429 L299.353846,114.871429 C299.982906,114.871429 300.454701,114.635714 300.454701,113.378571 L300.533333,109.607143 Z M323.965812,119.978571 C323.965812,123.121429 321.764103,124.221429 316.888889,124.221429 C314.043375,124.103207 311.207517,123.814594 308.396581,123.357143 C307.531624,123.278571 307.217094,123.592857 306.902564,124.457143 L306.116239,126.971429 C305.644444,128.307143 306.116239,128.7 306.902564,129.014286 C310.600393,130.275165 314.475913,130.938267 318.382906,130.978571 C327.661538,130.978571 331.986325,126.735714 331.986325,119.821429 C331.986325,112.907143 328.054701,110.785714 323.729915,109.45 L318.461538,107.957143 C315.316239,107.092857 313.979487,106.307143 313.979487,103.557143 C313.979487,100.807143 316.259829,99.7071429 320.74188,99.7071429 C323.300135,99.8328968 325.847758,100.121578 328.369231,100.571429 C329.234188,100.65 329.548718,100.335714 329.863248,99.4714286 L330.649573,96.9571429 C331.121368,95.6214286 330.649573,95.2285714 329.863248,94.9142857 C326.452556,93.6969604 322.868633,93.0337862 319.247863,92.95 C310.834188,92.95 306.116239,97.35 306.116239,103.635714 C306.116239,109.921429 308.317949,112.121429 313.507692,113.692857 L319.483761,115.421429 C323.179487,116.442857 323.808547,117.464286 323.808547,119.9 L323.965812,119.978571 Z M239.121368,123.042857 C237.269875,123.296955 235.406371,123.454312 233.538462,123.514286 C226.776068,123.514286 225.360684,120.057143 225.360684,114.164286 L225.360684,109.45 C225.360684,104.657143 226.225641,99.8642857 233.145299,99.8642857 C235.154092,99.8595504 237.15759,100.070281 239.121368,100.492857 L239.121368,123.042857 Z M359.11453,65.3714286 C357.147075,65.7705729 355.145968,65.9810522 353.138462,66 C347.870085,66 345.353846,63.25 345.353846,56.4142857 L345.353846,51.3857143 C345.353846,44.55 347.870085,41.8 353.138462,41.8 C355.145968,41.8189478 357.147075,42.0294271 359.11453,42.4285714 L359.11453,65.3714286 Z M333.323077,35.0428571 C327.517326,34.9516021 321.725545,35.638677 316.102564,37.0857143 C315.237607,37.3214286 314.923077,37.8714286 314.923077,38.9714286 L314.923077,71.1857143 C314.899064,71.4841641 315.00731,71.7781132 315.219191,71.98983 C315.431072,72.2015469 315.72525,72.3097091 316.023932,72.2857143 L322.078632,72.2857143 C322.377314,72.3097091 322.671492,72.2015469 322.883373,71.98983 C323.095254,71.7781132 323.203501,71.4841641 323.179487,71.1857143 L323.179487,42.5071429 C325.978146,41.971288 328.822251,41.7081493 331.671795,41.7214286 C332.603166,41.8635679 333.477103,41.2348213 333.637607,40.3071429 L334.738462,36.4571429 C334.974359,35.5928571 334.502564,34.9642857 333.323077,34.9642857 L333.323077,35.0428571 Z M241.323077,24.75 C241.323077,23.8857143 240.851282,23.3357143 239.907692,23.5714286 L234.088889,24.5142857 C233.302564,24.5928571 232.988034,24.9857143 232.988034,25.85 L232.988034,71.1857143 C232.964021,71.4841641 233.072267,71.7781132 233.284148,71.98983 C233.49603,72.2015469 233.790207,72.3097091 234.088889,72.2857143 L240.222222,72.2857143 C240.520904,72.3097091 240.815081,72.2015469 241.026963,71.98983 C241.238844,71.7781132 241.34709,71.4841641 241.323077,71.1857143 L241.323077,24.75 Z M179.203419,41.9571429 C181.176095,42.0117602 183.144579,42.1691167 185.100855,42.4285714 C185.965812,42.4285714 186.280342,42.1142857 186.594872,41.25 L187.381197,38.5 C187.852991,37.1642857 187.381197,36.6142857 186.594872,36.4571429 C183.929304,35.57459 181.146011,35.0978246 178.338462,35.0428571 C167.644444,35.0428571 162.533333,41.25 162.533333,50.9928571 L162.533333,57.0428571 C162.533333,67.7285714 167.801709,72.9928571 177.788034,72.9928571 C182.270085,72.9928571 184.235897,72.2071429 185.415385,71.8142857 C186.266759,71.652425 186.94391,71.0065554 187.145299,70.1642857 L188.010256,67.2571429 C188.324786,65.9214286 187.695726,65.6071429 187.066667,65.6071429 C186.437607,65.6071429 182.899145,66.0785714 179.517949,66.0785714 C174.092308,66.0785714 171.025641,64.1928571 171.025641,57.1214286 L171.025641,50.9928571 C171.025641,43.9214286 173.935043,42.0357143 179.203419,42.0357143 L179.203419,41.9571429 Z M258.22906,35.75 L258.22906,24.75 C258.22906,23.8857143 257.757265,23.3357143 256.813675,23.5714286 L250.994872,24.5142857 C250.208547,24.5928571 249.894017,24.9857143 249.894017,25.85 L249.894017,59.95 C249.894017,67.8071429 252.803419,72.9142857 262.082051,72.9142857 C264.306475,72.9483275 266.518371,72.5755263 268.608547,71.8142857 C269.459922,71.652425 270.137073,71.0065554 270.338462,70.1642857 L271.203419,67.1 C271.517949,65.7642857 270.888889,65.45 270.259829,65.45 C269.630769,65.45 267.193162,65.9214286 263.811966,65.9214286 C260.430769,65.9214286 258.150427,64.0357143 258.150427,59.6357143 L258.150427,42.6642857 L268.844444,42.6642857 C269.143126,42.6882805 269.437304,42.5801183 269.649185,42.3684015 C269.861066,42.1566846 269.969313,41.8627356 269.945299,41.5642857 L269.945299,36.7714286 C269.969313,36.4729787 269.861066,36.1790297 269.649185,35.9673128 C269.437304,35.7555959 269.143126,35.6474338 268.844444,35.6714286 L258.22906,35.75 Z M367.68547,38.5785714 C367.68547,37.4 367.37094,37.0857143 366.191453,36.6928571 C361.946385,35.6262579 357.593538,35.0463289 353.217094,34.9642857 C342.444444,34.9642857 337.176068,41.4071429 337.176068,51.3071429 L337.176068,56.5714286 C337.176068,67.5714286 342.444444,72.9142857 353.217094,72.9142857 C357.567237,72.8269782 361.893446,72.2470837 366.112821,71.1857143 C367.292308,70.8714286 367.606838,70.5571429 367.606838,69.3 L367.68547,38.5785714 Z M247.692308,96.7214286 C247.692308,95.5428571 247.377778,95.2285714 246.198291,94.8357143 C241.972455,93.6531902 237.611801,93.0194057 233.223932,92.95 C222.765812,92.95 217.182906,99.0785714 217.182906,109.292857 L217.182906,114.164286 C217.182906,124.85 222.608547,130.271429 232.594872,130.271429 C235.062249,130.262465 237.518853,129.94573 239.907692,129.328571 L239.435897,129.014286 L239.435897,130.35 C239.435897,135.221429 236.919658,136.557143 232.123077,136.557143 C228.61549,136.563677 225.114726,136.248064 221.664957,135.614286 C220.8,135.535714 220.328205,135.928571 220.17094,136.792857 L219.54188,139.621429 C219.070085,140.957143 219.54188,141.507143 220.328205,141.664286 C224.651504,142.893309 229.122291,143.52772 233.617094,143.55 C242.109402,143.55 247.77094,139.542857 247.77094,129.721429 L247.692308,96.7214286 Z M263.418803,82.7357143 C263.418803,81.8714286 262.947009,81.3214286 262.003419,81.5571429 L256.184615,82.5 C255.398291,82.5785714 255.083761,82.9714286 255.083761,83.8357143 L255.083761,129.171429 C255.059747,129.469878 255.167993,129.763827 255.379875,129.975544 C255.591756,130.187261 255.885934,130.295423 256.184615,130.271429 L262.317949,130.271429 C262.61663,130.295423 262.910808,130.187261 263.122689,129.975544 C263.334571,129.763827 263.442817,129.469878 263.418803,129.171429 L263.418803,82.7357143 Z M172.991453,94.2857143 C172.991453,93.4214286 172.519658,92.8714286 171.576068,93.1071429 L165.757265,94.05 C164.97094,94.1285714 164.65641,94.5214286 164.65641,95.3857143 L164.65641,128.935714 C164.609551,129.602611 165.09325,130.189503 165.757265,130.271429 L172.126496,130.271429 C172.598291,130.271429 172.991453,129.642857 172.991453,128.935714 L172.991453,94.2857143 Z M359.507692,123.435714 C357.540311,123.835334 355.539158,124.045818 353.531624,124.064286 C348.263248,124.064286 345.747009,121.314286 345.747009,114.478571 L345.747009,109.45 C345.747009,102.614286 348.263248,99.8642857 353.531624,99.8642857 C355.53913,99.8832335 357.540238,100.093713 359.507692,100.492857 L359.507692,123.435714 Z M367.68547,96.6428571 C367.68547,95.4642857 367.37094,95.15 366.191453,94.7571429 C361.946385,93.6905436 357.593538,93.1106146 353.217094,93.0285714 C342.444444,93.0285714 337.176068,99.4714286 337.176068,109.371429 L337.176068,114.635714 C337.176068,125.635714 342.444444,130.978571 353.217094,130.978571 C357.593538,130.896528 361.946385,130.316599 366.191453,129.25 C367.37094,128.935714 367.68547,128.621429 367.68547,127.364286 L367.68547,96.6428571 Z" id="Shape" fill="#000000"></path>
                <g id="emblema" fill="#ED1C24">
                    <path d="M122.116239,89.1 C114.724786,87.9214286 106.625641,86.9 93.808547,78.4142857 C93.808547,78.4142857 91.2136752,76.6857143 89.1692308,78.65 C89.1692308,78.65 80.6769231,87.9214286 61.7264957,97.1928571 C59.1316239,98.45 58.7384615,100.964286 59.3675214,103.242857 C60.782906,109.214286 63.3777778,117.621429 62.3555556,119.035714 C61.3333333,120.45 45.6068376,121.157143 43.0905983,124.457143 C42.4615385,125.242857 40.1811966,130.742857 44.1128205,138.757143 C46.2221856,143.162364 49.5514767,146.870823 53.7059829,149.442857 C54.191191,149.655954 54.4555574,150.184277 54.3350427,150.7 C54.2564103,151.171429 53.1555556,156.357143 52.7623932,157.692857 C52.4791204,158.571806 51.6409958,159.151595 50.7179487,159.107143 C47.5526908,159.020129 44.4100957,158.545147 41.3606838,157.692857 C40.8102564,157.535714 39.7880342,157.535714 40.574359,158.635714 C42.2831562,161.042331 44.7455188,162.811644 47.5726496,163.664286 C54.7282051,165.55 56.6940171,164.371429 58.1094017,161.464286 C59.5247863,158.557143 60.9401709,152.271429 61.4905983,148.971429 C61.6807137,147.882991 61.1806347,146.789917 60.2324786,146.221429 C56.0649573,143.785714 46.157265,137.421429 48.1230769,129.014286 C48.7521368,126.342857 61.1760684,125.871429 65.1863248,125.164286 C69.1965812,124.457143 71.4769231,123.042857 69.825641,116.285714 C68.8034188,111.885714 67.3880342,107.25 66.8376068,104.5 C66.4306666,102.801499 67.2440244,101.04601 68.8034188,100.257143 L75.2512821,96.4857143 C77.6102564,96.8785714 81.3846154,97.5857143 84.1367521,98.2142857 C86.8888889,98.8428571 87.2820513,99.4714286 87.2820513,102.692857 C87.2820513,105.914286 87.2820513,110.785714 87.3606838,112.985714 C87.4393162,116.364286 89.2478632,119.428571 93.3367521,119.428571 L101.357265,119.428571 C103.008547,119.428571 107.805128,119.192857 111.34359,115.421429 C111.696734,115.12912 112.187422,115.067831 112.601709,115.264286 C115.422327,116.835326 117.949633,118.882184 120.071795,121.314286 C120.071795,121.314286 119.835897,125.085714 114.331624,130.585714 C114.017094,130.9 113.938462,131.45 115.039316,131.292857 C117.398291,131.057143 122.509402,129.564286 124.632479,125.321429 C127.699145,119.192857 125.104274,116.6 122.981197,114.792857 C120.85812,112.985714 118.263248,110.55 114.803419,108.978571 C113.134821,108.48027 111.327131,108.865216 110.006838,110 C108.512821,111.571429 105.367521,113.85 101.82906,113.85 L97.6615385,113.85 C95.4598291,113.85 93.808547,114.085714 93.5726496,110.471429 C93.3367521,106.857143 93.4153846,102.928571 93.4153846,99.8642857 C93.4153846,96.8 93.0222222,94.3642857 89.3264957,93.2642857 L83.2717949,91.5357143 C86.3003526,89.4555164 89.1418565,87.1157246 91.7641026,84.5428571 C91.7641026,84.5428571 108.748718,94.05 128.17094,94.8357143 C128.276744,94.8237619 128.369312,94.7591333 128.41693,94.6639709 C128.464548,94.5688085 128.46075,94.4560342 128.406838,94.3642857 C127.620513,93.1071429 125.733333,89.65 122.116239,89.1 Z" id="Shape"></path>
                    <path d="M100.413675,126.342857 L85.5521368,126.342857 C83.5076923,126.342857 83.1931624,125.95 82.4854701,122.335714 C81.7805002,118.489981 80.8616981,114.686471 79.7333333,110.942857 C78.7897436,108.192857 76.9811966,106.307143 73.442735,107.328571 C73.442735,107.328571 76.1948718,121.157143 76.9811966,125.95 C77.7675214,130.742857 78.0820513,131.764286 83.3504274,131.764286 L108.748718,131.764286 C109.063248,131.764286 109.14188,131.607143 109.063248,131.371429 C107.352671,128.206363 104.012725,126.26463 100.413675,126.342857 L100.413675,126.342857 Z" id="Shape"></path>
                    <path d="M38.2940171,140.642857 C36.0136752,136.242857 33.2615385,130.9 31.4529915,127.364286 C29.6444444,123.828571 33.9692308,121.628571 37.5076923,117.228571 C39.5088779,114.874863 39.852727,111.532746 38.3726496,108.821429 C38.2940171,108.664286 37.9794872,108.742857 37.9008547,108.821429 C32.3179487,114.4 29.408547,117.071429 22.174359,118.642857 C17.1149692,119.84452 11.8207393,117.968373 8.64957265,113.85 C3.85299145,107.8 6.9982906,99.1571429 11.165812,94.4428571 C24.9264957,78.8857143 31.1384615,70.0071429 30.4307692,51.7785714 C29.8803419,37.7142857 14.8615385,24.5142857 5.18974359,17.2857143 C4.87521368,17.05 4.24615385,17.05 4.24615385,17.6785714 C4.16752137,19.6428571 4.56068376,24.3571429 9.43589744,28.6785714 C15.5692308,34.1 22.4102564,42.1142857 23.9042735,51.0714286 C25.3982906,60.0285714 21.8598291,74.1714286 8.88547009,88.0785714 C1.96581197,95.4642857 -0.471794872,101.592857 0.235897436,108.428571 C0.490091616,111.568627 1.69711212,114.556424 3.6957265,116.992857 C10.0649573,125.085714 19.1863248,124.457143 23.1179487,123.671429 C22.4102564,125.085714 22.8034188,127.128571 25.634188,130.978571 C30.1948718,137.342857 36.7213675,150.228571 38.2153846,152.9 C38.4512821,153.371429 38.6871795,153.057143 38.8444444,152.9 C41.4393162,148.971429 40.8888889,145.592857 38.2940171,140.642857 Z" id="Shape"></path>
                    <path d="M75.9589744,18.8571429 C74.4649573,19.0928571 78.3965812,20.9785714 80.0478632,22 C81.6991453,23.0214286 82.7213675,22.9428571 82.957265,22.2357143 C83.1944759,21.3372447 83.2213823,20.3962515 83.0358974,19.4857143 C83.0155906,19.3051341 82.8932226,19.1522929 82.7213675,19.0928571 C80.9128205,18.4642857 77.374359,18.6214286 75.9589744,18.8571429 Z" id="Shape"></path>
                    <path d="M14.9401709,16.6571429 C22.4102564,23.1 27.9931624,28.2071429 32.7897436,38.2642857 C39.7880342,53.0357143 35.7777778,67.7285714 31.1384615,77.4714286 C26.4991453,87.2142857 17.6923077,94.5214286 14.2324786,99.7857143 C11.7162393,103.557143 11.0871795,108.9 15.9623932,111.964286 C27.2854701,119.271429 49.4598291,90.9071429 52.4478632,72.5214286 C53.3128205,67.2571429 52.2905983,63.25 49.5384615,60.4214286 C49.3811966,60.2642857 48.9094017,60.1071429 48.9094017,60.5 C48.4567778,64.1795557 47.7739597,67.8271724 46.8649573,71.4214286 C43.6410256,84.3857143 37.2717949,95.4642857 26.1059829,104.657143 C20.0512821,109.607143 16.434188,105.521429 20.365812,101.357143 C29.9589744,91.3 35.6205128,83.9928571 39.3948718,74.4857143 C43.1692308,64.9785714 47.0222222,45.5714286 33.5760684,27.1071429 C26.5777778,17.4428571 19.1076923,11.7857143 9.35726496,3.14285714 C9.2507089,2.98462721 9.04581308,2.92572494 8.87139754,3.00318278 C8.69698199,3.08064061 8.60343591,3.27208075 8.64957265,3.45714286 C8.33504274,5.65714286 8.64957265,11.2357143 14.9401709,16.6571429 Z" id="Shape"></path>
                    <path d="M9.59316239,46.2785714 C11.5589744,48.3214286 16.1196581,52.8 17.2991453,58.0642857 C17.5350427,59.1642857 18.0068376,58.85 18.1641026,58.0642857 C19.1076923,52.5642857 18.557265,47.4571429 13.9179487,42.2714286 C9.87804307,37.894767 5.54312993,33.7994857 0.943589744,30.0142857 C0.393162393,29.6214286 0.0786324786,29.7785714 0.0786324786,30.4071429 C2.43555176e-14,32.45 0.314529915,36.9285714 3.45982906,40.15 C3.61709402,40.4642857 9.12136752,45.7285714 9.59316239,46.2785714 Z" id="Shape"></path>
                    <path d="M81.1487179,51.3071429 C81.0121457,52.2179238 80.933356,53.1364237 80.9128205,54.0571429 C80.8478742,56.5495224 81.7494217,58.9705499 83.4290598,60.8142857 C85.3948718,62.8571429 89.7196581,66.6285714 91.2136752,67.9642857 C92.7076923,69.3 91.7641026,68.2 91.842735,67.8071429 C91.9213675,67.4142857 91.9213675,66.6285714 92,65.8428571 C92.3129684,63.454617 91.465658,61.0606338 89.7196581,59.4 L81.7777778,51.15 C81.4632479,50.6785714 81.2273504,50.7571429 81.1487179,51.3071429 Z" id="Shape"></path>
                    <path d="M145.155556,81.2428571 C142.953846,78.2571429 139.808547,74.7214286 136.74188,72.9928571 C135.525226,72.2186731 133.977716,72.1883533 132.731624,72.9142857 C129.74359,74.9571429 119.678632,78.2571429 109.692308,71.8142857 C116.567858,63.5860766 124.591862,56.3886026 133.517949,50.4428571 C133.618069,50.3875055 133.680207,50.282191 133.680207,50.1678571 C133.680207,50.0535233 133.618069,49.9482088 133.517949,49.8928571 C129.979487,47.85 125.261538,49.2642857 119.049573,54.6071429 C115.432479,57.6714286 109.535043,63.3285714 106.153846,66.6285714 C106.430272,63.2172352 105.691651,59.8003456 104.030769,56.8071429 C117.555556,52.0142857 126.047863,36.2214286 127.54188,34.8071429 C129.035897,33.3928571 136.191453,34.65 137.213675,35.1214286 C139.808547,36.4571429 136.584615,47.5357143 137.449573,47.0642857 C142.167521,44.55 143.582906,39.4428571 143.582906,35.1214286 C143.582906,32.3714286 143.425641,29.6214286 136.034188,28.6 C130.136752,27.7357143 125.497436,28.6785714 123.767521,29.4642857 C123.445671,29.6237765 123.173715,29.8683473 122.981197,30.1714286 C118.235105,40.0976993 110.050118,47.9692838 99.9418803,52.3285714 L91.1350427,43.8428571 L97.7401709,43.8428571 C100.25641,43.8428571 103.323077,43.3714286 101.986325,39.8357143 C100.649573,36.3 98.6837607,32.2142857 98.6837607,32.2142857 L103.952137,23.1 C105.446154,20.5857143 106.232479,18.0714286 101.82906,16.1857143 C98.6354971,14.8187146 95.2791582,13.8680501 91.842735,13.3571429 C89.7982906,12.9642857 90.034188,12.4928571 89.4837607,11.3928571 C88.9333333,10.2928571 88.4615385,9.42857143 85.7094017,8.87857143 C82.957265,8.32857143 76.1162393,7.15 76.1162393,7.15 C76.1162393,7.15 75.0153846,3.06428571 74.5435897,1.72857143 C74.0717949,0.392857143 72.7350427,0.471428571 70.6905983,1.80714286 C68.6461538,3.14285714 48.9094017,15.0857143 47.1794872,34.1785714 C46.5411293,40.0603989 47.4068927,46.007901 49.6957265,51.4642857 C53.5487179,60.3428571 60.9401709,66.3928571 62.9846154,67.8857143 C63.2991453,68.1214286 63.5350427,68.0428571 63.6136752,67.7285714 C63.6923077,67.4142857 63.7709402,66.55 63.8495726,65.6857143 C64.2008339,63.5989855 63.6587359,61.4607861 62.3555556,59.7928571 C58.5811966,54.6071429 55.5145299,51.6214286 53.8632479,45.4928571 C50.9538462,34.4928571 54.0991453,19.8 71.634188,9.11428571 C71.6746054,9.08724576 71.72527,9.08041496 71.7714141,9.09578437 C71.8175581,9.11115379 71.8539881,9.14699358 71.8700855,9.19285714 L72.9709402,12.8857143 L73.2068376,13.0428571 L85.1589744,14.5357143 C85.3150385,14.5620648 85.4554263,14.6462321 85.5521368,14.7714286 L87.2034188,17.2857143 C87.3164638,17.3909877 87.450423,17.4713009 87.5965812,17.5214286 C89.0119658,17.7571429 95.8529915,19.0142857 98.5264957,20.6642857 C98.7623932,20.8214286 98.6837607,20.9785714 98.6837607,20.9785714 L94.4376068,28.9928571 L89.1692308,28.9928571 C87.8324786,28.9928571 86.8102564,29.4642857 87.8324786,30.8785714 C88.8547009,32.2928571 89.5623932,33.3928571 91.7641026,33.3928571 L94.3589744,33.3928571 L96.4034188,38.3428571 L89.2478632,38.3428571 C85.8666667,38.3428571 83.8222222,39.3642857 84.0581197,42.1142857 C84.2940171,44.8642857 87.8324786,47.85 96.5606838,55.7857143 C100.413675,59.3214286 101.121368,61.2071429 100.25641,70.4785714 C100.25641,70.4785714 106.389744,77.0785714 114.724786,79.3571429 C120.779487,81.0071429 127.54188,81.3214286 133.832479,78.5714286 C133.832479,78.5714286 139.022222,81.95 141.066667,85.8785714 C141.133883,86.1155014 141.105661,86.3693064 140.988034,86.5857143 C139.072408,89.5288199 136.649727,92.1092326 133.832479,94.2071429 C133.360684,94.5214286 132.888889,94.9928571 133.675214,95.15 C135.798291,95.5428571 140.594872,95.6214286 145.076923,90.9071429 C149.558974,86.1928571 147.042735,83.8357143 145.155556,81.2428571 Z" id="Shape"></path>
                    <path d="M67.7025641,51.3071429 C67.5674158,52.2180906 67.4886337,53.1365014 67.4666667,54.0571429 C67.4017204,56.5495224 68.3032678,58.9705499 69.982906,60.8142857 C71.9487179,62.8571429 76.2735043,66.6285714 77.7675214,67.9642857 C79.2615385,69.3 78.3179487,68.2 78.3965812,67.8071429 C78.4752137,67.4142857 78.4752137,66.6285714 78.5538462,65.8428571 C78.8668145,63.454617 78.0195041,61.0606338 76.2735043,59.4 L68.3316239,51.15 C68.017094,50.6785714 67.7811966,50.7571429 67.7025641,51.3071429 Z" id="Shape"></path>
                </g>
            </g>
        </g>
    </g>
</svg>